<svg width="48" height="48" viewBox="0 0 48 48" fill="none" xmlns="http://www.w3.org/2000/svg">
<rect width="48" height="48" rx="10" fill="#E9EBF1"/>
<mask id="mask0_0_4081" style="mask-type:luminance" maskUnits="userSpaceOnUse" x="0" y="0" width="48" height="48">
<rect width="48" height="48" rx="10" fill="white"/>
</mask>
<g mask="url(#mask0_0_4081)">
<mask id="mask1_0_4081" style="mask-type:luminance" maskUnits="userSpaceOnUse" x="0" y="-6" width="186" height="105">
<path fill-rule="evenodd" clip-rule="evenodd" d="M0 -6H186V99H0V-6Z" fill="white"/>
</mask>
<g mask="url(#mask1_0_4081)">
<path fill-rule="evenodd" clip-rule="evenodd" d="M186 101.151V109H0V-15H18.1982C19.9516 -14.3428 21.6628 -13.569 23.3145 -12.6886C34.2091 -6.88048 42.4799 3.55784 45.9048 15.4197C48.8907 25.7613 48.3005 36.7452 49.3545 47.4588C50.4085 58.1699 53.625 69.501 62.067 76.1772C68.877 81.5613 78.0382 83.0245 86.7157 82.712C95.3907 82.397 103.939 80.5048 112.604 79.9865C125.982 79.183 139.545 81.7175 151.726 87.2975C161.743 91.8855 171.026 98.5542 181.851 100.605C183.225 100.866 184.611 101.047 186 101.151Z" fill="#FFFFFE"/>
</g>
<mask id="mask2_0_4081" style="mask-type:luminance" maskUnits="userSpaceOnUse" x="43" y="9" width="80" height="91">
<path fill-rule="evenodd" clip-rule="evenodd" d="M43 9H123V100H43V9Z" fill="white"/>
</mask>
<g mask="url(#mask2_0_4081)">
</g>
<path fill-rule="evenodd" clip-rule="evenodd" d="M31.1428 0.369756C29.5162 2.00559 28.3043 4.15845 27.3982 6.22707C25.3543 10.891 23.0154 17.8792 27.8593 21.5989C30.3933 23.5451 34.9346 23.0822 37.8808 22.4695C41.8076 21.6525 45.4859 20.9323 48.9781 18.8544C52.4402 16.7943 54.48 12.5233 54.9497 8.6774C55.2996 5.81502 53.772 2.9931 51.9528 0.830379C49.4299 -2.16885 45.4808 -3.12273 41.7105 -2.98765C39.6167 -2.91278 37.4227 -2.65022 35.3887 -2.14685C33.7263 -1.73504 32.3251 -0.819363 31.1428 0.369756Z" fill="#15C0E6"/>
<mask id="mask3_0_4081" style="mask-type:luminance" maskUnits="userSpaceOnUse" x="0" y="11" width="8" height="5">
<path fill-rule="evenodd" clip-rule="evenodd" d="M0 11H8V16H0V11Z" fill="white"/>
</mask>
<g mask="url(#mask3_0_4081)">
<path fill-rule="evenodd" clip-rule="evenodd" d="M5.48321 14.9998C6.00222 14.9878 6.47752 14.7078 6.94953 14.5627C7.22937 14.4768 7.50427 14.3851 7.77615 14.286C7.89875 14.2411 8.02383 14.1984 8.14314 14.1488C8.12637 14.1556 8.58463 13.9894 8.35921 14.0082C9.32466 13.9273 9.1457 12.8703 8.18025 13.0133C7.92157 13.0516 7.77065 13.1578 7.5631 13.2685C7.286 13.4159 6.98004 13.5446 6.68095 13.6651C6.3967 13.7793 6.08607 13.8691 5.81447 13.9993C5.61462 14.0949 5.4505 14.2388 5.23773 14.3172C4.80064 14.4787 5.01561 15.0108 5.48321 14.9998Z" fill="#434253"/>
<path fill-rule="evenodd" clip-rule="evenodd" d="M-2.81955 12.9838C-2.40952 13.0706 -1.91668 12.787 -1.54911 12.6365C-1.28653 12.5292 -1.03858 12.3929 -0.78308 12.2714C-0.607555 12.1881 -0.393811 12.031 -0.260751 11.9665C0.201889 11.7421 0.0117369 10.9402 -0.539138 11.0036C-0.836869 11.0378 -0.926047 11.15 -1.1287 11.3261C-1.28984 11.4661 -1.52906 11.5894 -1.7086 11.7131C-2.09786 11.9809 -2.47416 12.3098 -2.88018 12.5497C-3.05547 12.6533 -3.04108 12.9368 -2.81955 12.9838Z" fill="#434253"/>
</g>
<path fill-rule="evenodd" clip-rule="evenodd" d="M2.06064 10.8658C2.06955 10.873 2.07915 10.8802 2.08841 10.8874C2.17309 10.9525 2.43638 11.0066 2.63693 10.9994C3.15461 10.9809 3.62119 10.8734 4.09361 10.7981C4.5434 10.7264 4.97331 10.6279 5.43338 10.5657C6.40462 10.4343 6.03985 9.93229 5.00108 10.0077C4.32811 10.0566 3.67365 10.2718 3.0785 10.3894C2.63214 10.4777 1.76341 10.637 2.06064 10.8658Z" fill="#434253"/>
<path fill-rule="evenodd" clip-rule="evenodd" d="M12.287 12.973C12.8771 13.0724 13.6314 12.8719 14.1725 12.7822C14.7489 12.6867 15.3268 12.6294 15.7976 12.4562C16.4275 12.2244 15.4381 11.8289 14.8592 12.0811C14.5369 12.2213 14.0522 12.2707 13.6404 12.3565C13.1587 12.4565 12.6481 12.5666 12.1917 12.6818C11.8768 12.7616 11.9791 12.9212 12.287 12.973Z" fill="#434253"/>
<path fill-rule="evenodd" clip-rule="evenodd" d="M13.4109 17.9697C13.9378 17.698 14.3568 17.1849 14.845 16.8388C15.0257 16.7109 15.041 16.3764 14.9294 16.1856C14.7989 15.9625 14.5711 15.9566 14.3928 16.0829C14.1524 16.2532 13.9542 16.5138 13.7362 16.7225C13.5163 16.9325 13.2322 17.1137 13.0621 17.3866C12.8836 17.6728 13.118 18.1207 13.4109 17.9697Z" fill="#434253"/>
<path fill-rule="evenodd" clip-rule="evenodd" d="M11.4131 23.8855C11.89 23.0236 12.3993 22.2087 12.8664 21.3406C13.3258 20.4869 12.4818 19.4127 12.1205 20.3854C12.02 20.6559 11.8993 20.8801 11.81 21.1653C11.7063 21.4974 11.5803 21.8005 11.4491 22.1035C11.2494 22.5647 10.9417 23.1041 11.0096 23.7086C11.0426 24.0035 11.2965 24.0965 11.4131 23.8855Z" fill="#434253"/>
<mask id="mask4_0_4081" style="mask-type:luminance" maskUnits="userSpaceOnUse" x="0" y="21" width="6" height="8">
<path fill-rule="evenodd" clip-rule="evenodd" d="M0 21H6V29H0V21Z" fill="white"/>
</mask>
<g mask="url(#mask4_0_4081)">
<path fill-rule="evenodd" clip-rule="evenodd" d="M4.35083 24.9934C4.69535 24.8932 5.03012 24.4499 5.25034 24.093C5.4881 23.708 5.78671 23.3886 5.94998 22.9298C6.23127 22.1395 5.24471 21.584 5.01518 22.4055C4.79322 23.2002 3.97297 23.7124 4.00069 24.6348C4.00718 24.8482 4.19709 25.0381 4.35083 24.9934Z" fill="#434253"/>
<path fill-rule="evenodd" clip-rule="evenodd" d="M-0.412157 28.731C-0.417324 28.8152 -0.254817 28.5695 -0.213997 28.5121C-0.0866268 28.3315 0.0252419 28.1412 0.136077 27.9507C0.372216 27.5442 0.668551 27.1838 0.919674 26.7892C1.29067 26.2067 0.27249 25.6596 -0.0184206 26.2621C-0.28427 26.8119 -0.542886 27.3378 -0.768431 27.9079C-0.901227 28.2436 -1.15028 28.5852 -0.877458 28.9166C-0.718568 29.1096 -0.424558 28.934 -0.412157 28.731Z" fill="#434253"/>
<path fill-rule="evenodd" clip-rule="evenodd" d="M0.279886 23.9293C0.329516 23.8605 0.44231 23.8166 0.51055 23.7622C0.70042 23.611 0.871491 23.4069 1.04012 23.2016C1.33451 22.8433 1.66406 22.4673 1.90055 22.0066C2.20528 21.4128 1.74602 20.6674 1.38 21.1607C1.21119 21.388 1.07283 21.6767 0.920368 21.9327C0.750613 22.2174 0.564315 22.4737 0.39362 22.7559C0.221045 23.041 -0.107937 23.4317 0.0351233 23.878C0.0847527 24.0328 0.207698 24.0292 0.279886 23.9293Z" fill="#434253"/>
</g>
<path fill-rule="evenodd" clip-rule="evenodd" d="M12.3777 6.86687C12.9287 6.89756 13.4758 6.9337 14.0372 6.94598C14.6871 6.9603 15.3428 7.13557 15.8655 6.76639C16.0448 6.63954 16.0448 6.37266 15.8655 6.24581C15.3178 5.85982 14.4745 6.02713 13.7922 6.09373C13.303 6.14147 12.6267 6.09874 12.1854 6.30401C11.8438 6.46268 12.0132 6.84664 12.3777 6.86687Z" fill="#434253"/>
<path fill-rule="evenodd" clip-rule="evenodd" d="M19.02 10.122C18.881 10.44 19.5001 10.5757 19.816 10.6174C20.6154 10.7227 21.4013 10.8155 22.1875 10.9799C23.0159 11.1529 23.3429 10.1564 22.5337 10.0753C21.825 10.0041 21.0988 9.98581 20.3839 10.0103C20.0649 10.0213 19.5022 10.1273 19.2046 10.0464C19.1269 10.0255 19.0427 10.0704 19.02 10.122Z" fill="#434253"/>
<path fill-rule="evenodd" clip-rule="evenodd" d="M19.216 14.4808C19.7804 14.6355 20.3034 14.7599 20.9046 14.8469C21.3562 14.9122 21.9215 15.0221 22.3809 14.9961C22.9002 14.9665 23.2203 14.5466 22.8196 14.2694C22.3832 13.9673 21.7315 14.0831 21.1691 14.0621C20.5781 14.0399 19.7743 13.9256 19.216 14.0776C18.9274 14.1559 18.9286 14.4019 19.216 14.4808Z" fill="#434253"/>
<path fill-rule="evenodd" clip-rule="evenodd" d="M23.1882 17.6948C24.1355 17.9907 25.2269 17.7954 26.2056 17.98C27.2617 18.1792 27.268 16.8199 26.2056 17.0202C25.2267 17.2049 24.1357 17.0095 23.1882 17.3054C22.9375 17.3838 22.937 17.6165 23.1882 17.6948Z" fill="#434253"/>
<path fill-rule="evenodd" clip-rule="evenodd" d="M7.78567 26.0002C7.61917 26.0072 7.54514 26.0685 7.42184 26.1629C7.23143 26.3089 7.03368 26.446 6.84936 26.5984C6.54529 26.8496 6.3249 27.1191 6.07955 27.4101C5.79729 27.7445 6.32972 28.1345 6.68432 27.9545C6.86068 27.8651 6.89738 27.7649 6.97958 27.6133C7.07541 27.4371 7.21591 27.2785 7.35138 27.1263C7.57828 26.8717 7.91967 26.5794 7.99516 26.2478C8.022 26.1297 7.93518 25.9938 7.78567 26.0002Z" fill="#434253"/>
<path fill-rule="evenodd" clip-rule="evenodd" d="M2.61731 28.0372C2.37342 28.3292 2.29504 28.7681 2.20599 29.207C2.06782 29.8879 2.02788 30.5443 2.00097 31.2537C1.96296 32.2544 3.05169 32.2431 2.99808 31.2537C2.96135 30.5745 2.92419 29.934 2.95815 29.2524C2.97587 28.8969 3.02392 28.3351 2.82211 28.0783C2.77 28.0117 2.67945 27.9631 2.61731 28.0372Z" fill="#434253"/>
<mask id="mask5_0_4081" style="mask-type:luminance" maskUnits="userSpaceOnUse" x="0" y="17" width="8" height="3">
<path fill-rule="evenodd" clip-rule="evenodd" d="M0 17H8V20H0V17Z" fill="white"/>
</mask>
<g mask="url(#mask5_0_4081)">
<path fill-rule="evenodd" clip-rule="evenodd" d="M5.45725 19.9888C5.94073 19.8779 6.43828 19.652 6.83438 19.3947C7.18024 19.1702 7.66905 18.9443 7.91443 18.6315C8.27534 18.172 7.39989 17.7342 7.04675 18.1973C6.99772 18.2619 6.8203 18.3285 6.74433 18.3786C6.51497 18.5289 6.29775 18.6922 6.06888 18.8427C5.73418 19.0628 5.25046 19.198 5.0444 19.5292C4.89611 19.7674 5.141 20.0613 5.45725 19.9888Z" fill="#434253"/>
<path fill-rule="evenodd" clip-rule="evenodd" d="M-0.578923 18.9099C-0.50093 18.7991 -0.348933 18.735 -0.239478 18.6465C-0.115177 18.5459 -0.0218961 18.4259 0.0866731 18.3138C0.322202 18.0701 0.639933 17.8963 0.87524 17.657C1.257 17.2692 0.682696 16.7835 0.226484 17.1045C-0.124704 17.3515 -0.415626 17.7197 -0.635423 18.0563C-0.795839 18.3021 -1.12044 18.6272 -0.953597 18.9099C-0.878263 19.0371 -0.658466 19.0228 -0.578923 18.9099Z" fill="#434253"/>
</g>
<path fill-rule="evenodd" clip-rule="evenodd" d="M16.1821 20.9767C16.4373 21.0261 16.6765 20.9905 16.9269 20.9299C17.1858 20.8675 17.453 20.871 17.7154 20.8234C18.2186 20.7325 17.9959 19.8464 17.5029 20.0233C17.2945 20.0981 17.0747 20.1258 16.8689 20.2057C16.6682 20.2836 16.4632 20.4367 16.2489 20.4637C15.995 20.496 15.8763 20.9173 16.1821 20.9767Z" fill="#434253"/>
<mask id="mask6_0_4081" style="mask-type:luminance" maskUnits="userSpaceOnUse" x="26" y="-6" width="67" height="21">
<path fill-rule="evenodd" clip-rule="evenodd" d="M26 -6H93V15H26V-6Z" fill="white"/>
</mask>
<g mask="url(#mask6_0_4081)">
<path fill-rule="evenodd" clip-rule="evenodd" d="M26.0018 14.3546C26.0715 14.9204 26.6782 15.1417 27.1314 15.3691C27.2943 15.4509 27.4626 15.5249 27.6225 15.6126C27.5941 15.5969 27.8195 15.7334 27.7632 15.6914C27.6544 15.6098 27.9764 15.8971 28.0145 15.9177C28.3811 16.1151 28.8518 15.9467 28.9661 15.5262C28.9696 15.5133 28.9731 15.5008 28.9765 15.4879C29.0366 15.2674 28.9825 14.9738 28.8017 14.8197C28.4986 14.5618 28.1749 14.5037 27.7966 14.4412C27.3277 14.3632 26.8789 14.1957 26.4396 14.0172C26.2461 13.9386 25.9754 14.1426 26.0018 14.3546Z" fill="#434253"/>
</g>
<mask id="mask7_0_4081" style="mask-type:luminance" maskUnits="userSpaceOnUse" x="0" y="-6" width="30" height="73">
<path fill-rule="evenodd" clip-rule="evenodd" d="M0 -6H30V67H0V-6Z" fill="white"/>
</mask>
<g mask="url(#mask7_0_4081)">
<path fill-rule="evenodd" clip-rule="evenodd" d="M-1.96462 -9.7144C-1.98295 -9.63134 -1.99444 -9.54854 -1.99835 -9.46649C-2.01472 -9.12577 -1.9067 -8.78505 -1.78989 -8.45533C-0.824552 -5.73083 0.506386 -2.10799 2.17873 0.315825C3.43074 2.12974 5.17836 3.28849 7.34095 3.80532C10.6424 4.59458 11.6744 2.8422 14.1027 1.09508C16.9606 -0.961001 19.5068 -0.996522 22.9698 -1.56264C26.1865 -2.08823 28.5531 -4.1458 29.4683 -7.15575C30.5481 -10.7075 29.8713 -15.9334 28.4426 -19.3649C26.9993 -22.8314 25.1842 -26.4517 21.5487 -28.3497C15.8464 -31.3268 10.0495 -23.2944 7.30307 -20.1531C6.00756 -18.6717 5.17445 -16.7837 3.75626 -15.3883C2.8574 -14.5037 1.72466 -13.8866 0.803318 -13.0078C-0.0312682 -12.2115 -1.70117 -10.9092 -1.96462 -9.7144Z" stroke="#FFA432" stroke-width="4"/>
<path fill-rule="evenodd" clip-rule="evenodd" d="M2.50659 -8.13436C2.50781 -7.8939 2.5901 -7.65319 2.68197 -7.42218C3.45869 -5.46706 4.4673 -2.98835 5.67806 -1.3616C6.58645 -0.144469 7.82325 0.587647 9.34304 0.898891C11.6258 1.36678 12.3836 0.127679 14.1109 -1.11091C16.3446 -2.71237 18.3767 -2.82276 20.9349 -3.37881C23.3183 -3.90062 25.0395 -5.53912 25.6802 -8.03573C26.392 -10.8086 25.8482 -14.6398 24.7138 -17.1674C23.561 -19.7279 22.0859 -22.2973 19.377 -23.5793C16.8211 -24.801 14.2318 -23.1738 12.1178 -21.1088C10.7963 -19.8129 9.64493 -18.3326 8.80876 -17.3537C7.85297 -16.237 7.2062 -14.8358 6.17549 -13.7759C5.51569 -13.0956 4.69844 -12.605 4.03939 -11.9345C3.3877 -11.2713 2.21034 -10.2822 2.0153 -9.43454C1.93154 -9.03999 2.20518 -8.39757 2.50659 -8.13436Z" stroke="#FFA432" stroke-width="3.333"/>
<path fill-rule="evenodd" clip-rule="evenodd" d="M6.16003 41.0962C6.13719 41.1142 6.11164 41.1343 6.08561 41.1546C6.11164 41.1373 6.13743 41.1185 6.16003 41.0962Z" fill="#E78175"/>
<path fill-rule="evenodd" clip-rule="evenodd" d="M-5.32726 52.8311L-5.35531 52.7597C-5.14299 52.5938 -5.24552 52.7807 -5.0586 52.6128C-5.04143 52.4681 -4.72562 52.368 -4.68959 52.2696C-4.68596 52.2775 -4.58803 52.2049 -4.57545 52.2362C-4.57835 52.1679 -4.48405 52.1487 -4.43157 52.0901C-4.41827 52.0594 -4.45721 52.0885 -4.48332 52.0878L-4.35564 51.9626C-4.29059 51.9358 -4.25819 51.9517 -4.31405 52.0033C-3.93875 51.737 -2.1602 50.4221 -1.78466 50.0949C-1.85987 50.0994 -1.96433 50.2173 -2.04897 50.1983C-1.96699 50.0878 -1.88889 50.0906 -1.86616 50.023C-1.76846 50.0724 -1.62458 49.8652 -1.48699 49.8862L-1.49037 49.8172L-1.41856 49.8048C-0.997555 49.4034 -1.33102 49.7008 -0.921866 49.3968C-0.695044 49.2077 -0.63048 49.0579 -0.484665 48.9793C-0.504251 48.994 -0.575346 49.0064 -0.524081 48.9472C-0.484665 48.9793 -0.384553 48.7931 -0.326276 48.8106C-0.2709 48.759 -0.0767231 48.6141 -0.180945 48.6105C-0.128714 48.6121 0.0495052 48.4899 -0.0348883 48.5931C0.0241146 48.5493 0.0852938 48.5137 0.117939 48.4697L0.033062 48.5124C0.220952 48.3516 0.357094 48.3111 0.447775 48.1627L0.360479 48.1965C0.47389 48.102 0.567715 48.022 0.65235 48.0402L0.545226 48.151C0.73626 47.998 0.849913 47.9034 0.989199 47.7486L0.930922 47.7924C1.09584 47.5777 2.13105 46.6935 2.27058 46.4773L2.15402 46.5036L2.29041 46.3407C2.27082 46.3551 2.30999 46.5392 2.28412 46.5377C2.62194 46.2489 4.41766 44.8367 4.76273 44.625C4.90951 44.5501 4.83334 44.6751 4.83648 44.6832C4.98399 44.5471 4.87372 44.5865 5.01107 44.4882C5.05315 44.4679 5.02679 44.5276 5.0101 44.5494C5.06572 44.499 5.13077 44.473 5.12134 44.4497C5.0367 44.4897 5.03162 44.4133 4.97625 44.4024L5.15326 44.276L5.16873 44.3152C5.20815 44.2866 5.2038 44.1493 5.38685 44.0387C5.68452 43.8359 5.98921 43.5878 6.28399 43.3769C6.29293 43.4009 6.24046 43.4583 6.18774 43.5165C6.22692 43.4882 6.28253 43.4381 6.32824 43.4257C6.23417 43.4431 6.43343 43.3106 6.36886 43.3369C6.52532 43.0939 6.85056 42.9624 7 42.7651C6.96542 42.6786 6.55022 41.1811 6.49219 41.0916C6.55216 41.0496 6.61164 41.0066 6.63462 41.0008C6.60536 40.9912 6.48348 41.0683 6.43004 41.1265L6.45084 41.1819C6.32098 41.3056 6.39909 41.1789 6.26343 41.2858C6.23055 41.2525 6.35145 41.1485 6.46099 41.0605C6.3575 41.1316 6.23852 41.1789 6.22571 41.2525C6.12028 41.3076 6.20467 41.1971 6.07965 41.2671C6.00614 41.339 5.92513 41.4576 5.8168 41.5046L5.81341 41.4968C5.55999 41.6278 5.50655 41.8167 5.2732 41.9338L5.28674 41.9042C5.19848 41.9368 5.07467 42.0757 4.92668 42.1515C4.96972 42.1303 5.02122 42.1338 4.94505 42.1986C4.77699 42.2889 4.69018 42.3905 4.55863 42.4444L4.47811 42.5623C3.94708 42.9558 1.88899 44.5741 1.3865 45.0011L1.40294 44.9791C0.623332 45.6207 -1.00529 46.8971 -1.78757 47.5916C-1.94063 47.6548 -2.10918 47.801 -2.24871 47.8948C-2.16407 47.8518 -2.17084 47.8979 -2.22912 47.9416C-2.63489 48.2519 -2.23807 47.9879 -2.63464 48.3212C-3.07934 48.7196 -4.90215 50.0769 -5.3408 50.369C-5.52603 50.5969 -5.8341 50.7737 -6.02949 50.978L-6.01619 50.9479C-6.12742 51.0486 -6.52255 51.3503 -6.92735 51.6447C-7.3365 51.93 -7.75073 52.2195 -7.88349 52.3298L-7.84044 52.3111C-8.06049 52.5213 -8.06775 52.4368 -8.27184 52.5569C-8.2051 52.6007 -8.3896 52.7868 -8.46626 52.8493L-8.47206 52.8331C-8.58499 52.9307 -8.82052 53.1816 -9.013 53.3336L-9.02776 53.2944C-9.16898 53.4507 -9.48914 53.6609 -9.60521 53.7504C-9.88596 53.9337 -10.342 54.1773 -10.6757 54.4866L-10.9717 54.5577L-11 54.5926C-11 54.5926 -10.6375 56.0587 -9.99405 55.9593L-9.98002 56L-9.88668 55.9249C-9.7607 55.8589 -9.73265 55.7805 -9.71862 55.8204L-9.87919 55.931C-9.75731 55.8569 -9.82647 55.933 -9.85839 55.9846C-9.80809 55.9532 -9.75828 55.9229 -9.71306 55.9054C-9.69879 55.8763 -9.73918 55.9039 -9.76191 55.9092C-9.70726 55.8515 -9.64076 55.7562 -9.55443 55.717C-9.434 55.6343 -9.51187 55.7671 -9.37089 55.6705C-8.62344 55.1664 -7.88881 54.6915 -7.15465 54.1467C-7.1283 54.149 -7.14885 54.1626 -7.16578 54.1846C-6.95298 54.0086 -6.75131 53.8698 -6.55882 53.7074C-6.49232 53.6821 -6.46282 53.6915 -6.4367 53.693C-6.46282 53.6915 -6.18812 53.4805 -5.90399 53.2689C-5.76011 53.1649 -5.6213 53.0539 -5.51418 52.9714C-5.40681 52.8885 -5.33282 52.8326 -5.32726 52.8311Z" fill="#F65160"/>
<path fill-rule="evenodd" clip-rule="evenodd" d="M9.15917 42.0948C9.13682 42.1136 9.11177 42.1344 9.08646 42.156C9.11226 42.1374 9.13756 42.1171 9.15917 42.0948Z" fill="#E78175"/>
<path fill-rule="evenodd" clip-rule="evenodd" d="M-3.39253 54.3753L-3.42336 54.3052C-3.21188 54.1304 -3.31046 54.3216 -3.12545 54.1458C-3.11161 54.0003 -2.7933 53.8871 -2.75882 53.7872C-2.75518 53.7951 -2.65757 53.7187 -2.64397 53.7496C-2.64834 53.6806 -2.55317 53.6586 -2.50096 53.5968C-2.48882 53.5666 -2.52743 53.5968 -2.55414 53.5968L-2.4274 53.4667C-2.36208 53.4365 -2.32906 53.4518 -2.38418 53.5055C-2.00905 53.2241 -0.236852 51.8378 0.136818 51.4945C0.0615501 51.5015 -0.0418835 51.6231 -0.127349 51.6073C-0.0464964 51.4917 0.0321703 51.4923 0.0545082 51.4232C0.153328 51.471 0.295366 51.2558 0.433277 51.2742L0.429878 51.2037L0.501504 51.1896C0.921306 50.7692 0.586242 51.0792 1.00167 50.7633C1.23282 50.567 1.29838 50.4134 1.44721 50.3311C1.4273 50.3465 1.3547 50.3605 1.40715 50.2994C1.44721 50.3311 1.54894 50.1399 1.60843 50.1571C1.665 50.1042 1.8624 49.9534 1.75702 49.9511C1.80996 49.9518 1.99133 49.8248 1.90562 49.9314C1.9651 49.8856 2.02775 49.8491 2.06077 49.8026L1.97457 49.8475C2.16614 49.6814 2.30478 49.6382 2.39705 49.4851L2.30842 49.5219C2.42375 49.4235 2.51966 49.3405 2.60537 49.3581L2.49659 49.4718C2.69108 49.3131 2.80665 49.2152 2.94845 49.0557L2.88945 49.1007C3.05722 48.8796 4.1117 47.9636 4.25374 47.7425L4.13453 47.7704L4.27365 47.603C4.25374 47.6181 4.2938 47.8041 4.26758 47.8034C4.62085 47.5248 6.4217 45.9961 6.76551 45.7564C6.91362 45.6725 6.83859 45.8034 6.84199 45.8116C6.98961 45.6654 6.87768 45.7109 7.01559 45.6035C7.05808 45.5808 7.03235 45.6424 7.01632 45.6654C7.07168 45.6117 7.13748 45.5816 7.12728 45.558C7.04206 45.6035 7.03477 45.5256 6.9782 45.5177L7.15545 45.3794L7.17244 45.4182C7.21177 45.3876 7.20376 45.2478 7.38781 45.1251C7.68645 44.9032 7.99092 44.6341 8.28641 44.4041C8.29636 44.4276 8.24441 44.4887 8.19196 44.5503C8.23178 44.5193 8.2869 44.4657 8.33351 44.4503C8.23736 44.4731 8.43792 44.3276 8.37236 44.3575C8.52411 44.1043 8.85359 43.9514 9 43.7434C8.96309 43.6572 8.46511 42.1835 8.3998 42.0992C8.4588 42.0534 8.51756 42.0079 8.54038 42.0005C8.51003 41.9926 8.38936 42.0762 8.33764 42.1373L8.36216 42.1917C8.23542 42.321 8.30899 42.1909 8.17569 42.3057C8.14 42.274 8.25873 42.1636 8.36605 42.0695C8.26359 42.147 8.14462 42.2004 8.13515 42.274C8.0305 42.3348 8.11111 42.2203 7.98679 42.296C7.91565 42.3724 7.83869 42.4951 7.73015 42.548L7.727 42.5401C7.47497 42.6842 7.42933 42.8767 7.19721 43.0052L7.20935 42.9751C7.12145 43.0119 7.00151 43.1576 6.85462 43.2411C6.89711 43.2176 6.94955 43.2192 6.87525 43.2874C6.70845 43.3861 6.6242 43.4934 6.49333 43.5535L6.41612 43.6764C5.88924 44.0938 3.88565 45.8371 3.35198 46.2606L3.368 46.2379C2.57599 46.9017 0.920335 48.2238 0.124921 48.942C-0.0302286 49.0082 -0.201646 49.1595 -0.343441 49.2564C-0.25749 49.2124 -0.264288 49.2587 -0.324017 49.3037C-0.734591 49.6321 -0.333001 49.3515 -0.733378 49.7047C-1.18256 50.1284 -3.02396 51.5791 -3.46828 51.8938C-3.65427 52.1325 -3.96675 52.3244 -4.16269 52.5396L-4.14958 52.509C-4.25811 52.6212 -4.66869 52.9243 -5.06275 53.2668C-5.45851 53.6049 -5.85962 53.9474 -5.98709 54.076L-5.94484 54.0517C-6.15389 54.2922 -6.16725 54.2061 -6.3661 54.3523C-6.29569 54.3898 -6.47051 54.601 -6.54359 54.6735L-6.55087 54.6579C-6.65868 54.7707 -6.88011 55.0528 -7.0644 55.23L-7.08261 55.1908C-7.2142 55.3667 -7.52499 55.6172 -7.63668 55.7217C-7.90886 55.9407 -8.35779 56.2434 -8.67319 56.5948L-8.97402 56.706L-9 56.744C-9 56.744 -8.45491 58.1375 -7.80567 57.9619L-7.78673 58L-7.6998 57.9164C-7.57889 57.8357 -7.55947 57.7554 -7.54053 57.793L-7.69179 57.92C-7.57549 57.8334 -7.63765 57.9172 -7.66411 57.9716C-7.61628 57.9341 -7.56918 57.8988 -7.52523 57.8768C-7.51382 57.8459 -7.5517 57.8776 -7.57403 57.8855C-7.52523 57.8231 -7.46842 57.7217 -7.38514 57.6731C-7.2715 57.5775 -7.33609 57.7173 -7.20328 57.6061C-6.49916 57.0249 -5.80742 56.4752 -5.12272 55.8561C-5.0965 55.8556 -5.11568 55.8715 -5.13073 55.895C-4.93334 55.6967 -4.74493 55.5379 -4.56647 55.3557C-4.50261 55.324 -4.47299 55.3307 -4.44677 55.3307C-4.49848 55.3322 -3.42652 54.3707 -3.39253 54.3753Z" fill="#F65160"/>
<path fill-rule="evenodd" clip-rule="evenodd" d="M10.162 46.0965C10.1382 46.1138 10.1112 46.1339 10.0836 46.1542C10.1112 46.1369 10.1384 46.1181 10.162 46.0965Z" fill="#E78175"/>
<path fill-rule="evenodd" clip-rule="evenodd" d="M-2.09001 57.7456L-2.11857 57.6753C-1.89504 57.5088 -2.00409 57.6947 -1.80764 57.5269C-1.78697 57.3832 -1.45758 57.2803 -1.41819 57.1822C-1.41499 57.1901 -1.3116 57.1173 -1.29929 57.1486C-1.30101 57.08 -1.20279 57.0601 -1.14715 57.0012C-1.13287 56.9714 -1.17398 57.0007 -1.20131 56.9995L-1.06616 56.8749C-0.998458 56.8468 -0.964732 56.8628 -1.02357 56.9142C-0.629191 56.6463 1.24004 55.3244 1.63614 54.9956C1.55834 55.0016 1.44781 55.1186 1.36042 55.1007C1.44756 54.9901 1.52856 54.9921 1.55342 54.925C1.65361 54.9735 1.80674 54.7662 1.94829 54.7856L1.94657 54.7177L2.0214 54.7048C2.46625 54.3024 2.11372 54.5989 2.54699 54.2974C2.788 54.1095 2.85915 53.9606 3.01326 53.8835C2.99233 53.8977 2.91798 53.9099 2.97313 53.8522C3.01325 53.8835 3.12231 53.6984 3.18238 53.7163C3.24146 53.6656 3.44751 53.5216 3.33944 53.5174C3.39385 53.5196 3.58242 53.3981 3.49182 53.501C3.55361 53.4575 3.61836 53.4225 3.65381 53.378L3.56469 53.4202C3.76459 53.2616 3.90737 53.2214 4.0056 53.0737L3.91402 53.1078C4.0344 53.0141 4.13459 52.935 4.2215 52.9534L4.10727 53.063C4.31012 52.9112 4.4305 52.8177 4.57993 52.6639L4.51814 52.7076C4.69613 52.4948 5.79753 51.6182 5.94917 51.4039L5.82731 51.4295L5.97379 51.268C5.95286 51.2824 5.98807 51.4653 5.96099 51.4646C6.14661 51.3323 6.70124 50.8887 7.27755 50.4902C7.84991 50.0858 8.42178 49.6876 8.6042 49.5827C8.75954 49.5097 8.67583 49.6327 8.67879 49.6404C8.83757 49.5067 8.72113 49.5445 8.86761 49.4483C8.91217 49.4289 8.88213 49.4875 8.86441 49.5089C8.92374 49.4597 8.99242 49.4339 8.9838 49.411C8.89395 49.4505 8.89173 49.374 8.83462 49.3633L9.02319 49.2387L9.03772 49.278C9.08006 49.2502 9.0808 49.1137 9.27503 49.0051C9.59211 48.8062 9.91829 48.5632 10.2324 48.3566C10.2413 48.3802 10.1844 48.4374 10.1271 48.4941C10.1692 48.4662 10.229 48.4175 10.2767 48.4051C10.1783 48.4217 10.3907 48.2915 10.3225 48.3173C10.4941 48.078 10.8368 47.95 11 47.7548C10.9673 47.6696 10.5911 46.1795 10.5345 46.09C10.5982 46.0487 10.6615 46.0065 10.6851 46.0008C10.6556 45.9916 10.5259 46.0664 10.4683 46.1243L10.4877 46.1795C10.3479 46.3003 10.434 46.1758 10.289 46.2809C10.2558 46.2473 10.3858 46.1452 10.5025 46.0587C10.3922 46.1288 10.2669 46.1743 10.2509 46.2473C10.1394 46.3018 10.2309 46.1924 10.0983 46.2603C10.0195 46.3316 9.9306 46.4482 9.81589 46.4947L9.81342 46.486C9.5446 46.614 9.48207 46.8014 9.23491 46.9157L9.25017 46.8856C9.15711 46.918 9.02319 47.0544 8.86662 47.1287C8.91192 47.1078 8.96559 47.1123 8.88386 47.1752C8.70538 47.2629 8.61134 47.3646 8.47249 47.4168L8.38436 47.5334C7.81938 47.9214 5.61314 49.502 5.08041 49.9327L5.09764 49.9106C4.26655 50.5484 2.53173 51.817 1.69645 52.5075C1.53496 52.5697 1.35525 52.7148 1.20729 52.8083C1.29641 52.7655 1.28829 52.8113 1.226 52.8543C0.797163 53.1667 1.21566 52.9005 0.796178 53.2358C0.324993 53.6375 -1.59987 55.0078 -2.06219 55.3038C-2.26012 55.5332 -2.58434 55.7119 -2.79137 55.917L-2.77709 55.8877C-3.00801 56.0999 -4.46243 57.0715 -4.74036 57.2995L-4.6958 57.2788C-4.92622 57.4953 -4.93336 57.4118 -5.14631 57.5376C-5.07738 57.5784 -5.27087 57.7697 -5.35039 57.8341L-5.35704 57.8185C-5.47471 57.9186 -5.72162 58.1751 -5.92251 58.3325L-5.93777 58.294C-6.08548 58.453 -6.42028 58.6718 -6.54164 58.7647C-6.83484 58.9551 -7.31193 59.2116 -7.66052 59.5288L-7.9707 59.6098L-8 59.6454C-8 59.6454 -7.60882 61.0788 -6.9375 60.9607L-6.92248 61L-6.82598 60.9237C-6.69501 60.8541 -6.66621 60.7756 -6.65193 60.8148L-6.8181 60.9284C-6.69132 60.8514 -6.7632 60.9299 -6.79619 60.9814C-6.74375 60.9483 -6.69206 60.9177 -6.64553 60.8991C-6.63051 60.8693 -6.67236 60.8978 -6.696 60.9043C-6.63938 60.8456 -6.57069 60.75 -6.48158 60.7084C-6.35652 60.6227 -6.43652 60.7562 -6.2903 60.6567C-5.51508 60.1373 -4.75415 59.6469 -3.99346 59.0878C-3.96662 59.0893 -3.98779 59.1035 -4.00552 59.1256C-3.7847 58.9457 -3.57594 58.8027 -3.37629 58.637C-3.30736 58.6096 -3.27708 58.6181 -3.25 58.6196C-3.27733 58.6181 -2.99225 58.4023 -2.69782 58.1851C-2.54987 58.078 -2.40044 57.9693 -2.28646 57.8863C-2.17396 57.8035 -2.09616 57.7469 -2.09001 57.7456Z" fill="#F65160"/>
</g>
<path fill-rule="evenodd" clip-rule="evenodd" d="M23.7055 30C23.6201 30 23.5296 30.0026 23.4292 30.0075C23.2559 30.0169 23.0805 30.0467 22.911 30.0755C22.8423 30.0866 22.7736 30.0983 22.7052 30.1087C22.4948 30.1406 22.2872 30.1818 22.1294 30.214C22.0652 30.2272 22.0009 30.2386 21.9362 30.2501C21.8037 30.2731 21.6671 30.2973 21.5358 30.3369C21.4523 30.3629 21.3658 30.3935 21.2781 30.429C21.1876 30.4653 21.0886 30.5136 20.9751 30.5761C20.8939 30.6212 20.7895 30.7211 20.7336 30.7748L20.71 30.7981L20.6859 30.8207C20.6153 30.8887 20.5402 30.9891 20.4562 31.1284C20.4244 31.1805 20.3957 31.2386 20.3678 31.3063L20.3098 31.3644C20.173 31.5169 20.1036 31.7037 20.0853 31.9696C20.0558 32.4048 20.0199 32.9799 20.0022 33.5653C19.9976 33.7389 20.0011 33.9163 20.0048 34.0877C20.0062 34.1539 20.0073 34.22 20.0085 34.2854C20.0124 34.5676 20.0152 34.8498 20.0178 35.1315C20.0217 35.4978 20.0168 35.8703 20.0124 36.2301C20.005 36.8539 19.9974 37.499 20.0315 38.1324C20.0477 38.4266 20.0816 38.7308 20.1351 39.0623C20.1741 39.302 20.2567 39.5474 20.368 39.7531C20.5469 40.0841 20.8566 40.3663 21.2403 40.5474C21.4043 40.6249 21.5836 40.7038 21.781 40.7564C21.9353 40.7979 22.0914 40.8247 22.2378 40.8485C22.4554 40.8833 22.6755 40.9087 22.865 40.9302C23.0606 40.952 23.2647 40.9689 23.4893 40.9821C23.6936 40.994 23.8741 41 24.0411 41C24.332 41 24.5916 40.9821 24.8347 40.9463L24.9389 40.9315C25.0688 40.9134 25.2029 40.8944 25.3325 40.861C25.4455 40.8314 25.5575 40.7959 25.6752 40.7523C25.9074 40.6651 26.1493 40.55 26.395 40.4094C26.4803 40.3601 26.562 40.2996 26.6409 40.2408L26.652 40.2327C26.7726 40.143 26.9116 40.0332 27.029 39.9038C27.2185 39.6958 27.3737 39.4584 27.4899 39.1985C27.6356 38.8751 27.7425 38.527 27.8082 38.1638C27.8692 37.8266 27.9035 37.4884 27.9288 37.2025C27.968 36.7623 27.9756 36.3105 27.9831 35.8729L27.9854 35.7336C27.9954 35.1948 28 34.6952 28 34.2058C28 33.6483 27.948 33.101 27.8462 32.5791C27.7905 32.2966 27.7019 32.0139 27.5822 31.7403C27.4857 31.5185 27.3437 31.3128 27.183 31.1613C27.0162 31.0049 26.8661 30.892 26.7248 30.8168C26.4854 30.6905 26.2409 30.5974 25.9909 30.5053L25.8811 30.4643C25.7383 30.4109 25.5905 30.3561 25.4432 30.3102C24.9294 30.1499 24.4768 30.0537 24.0597 30.0156C23.9463 30.0054 23.827 30 23.7055 30Z" fill="#FFA432"/>
<path fill-rule="evenodd" clip-rule="evenodd" d="M38.1536 36.8799C38.1026 36.8898 38.0527 36.9022 38.0028 36.9191L37.9531 36.9484L37.9376 36.9655L37.9309 36.9777L37.9274 36.9896C37.9445 37.2877 37.9595 37.5855 37.9682 37.8838C37.9859 38.514 37.9997 39.1441 38.0121 39.7745C38.0234 40.3748 38.023 40.9757 38.0886 41.5728C38.1088 41.7108 38.1356 41.8453 38.1779 41.9777L38.1866 41.9941L38.2309 42.0213C38.3349 42.0588 38.4416 42.0848 38.5502 42.1043C38.8216 42.1382 39.093 42.1589 39.366 42.1762C39.6447 42.1942 39.924 42.2067 40.2023 42.1839C40.2992 42.1661 40.3932 42.142 40.4859 42.1075C40.5096 42.0942 40.5327 42.0804 40.5551 42.0651C40.5841 42.0361 40.6107 42.0056 40.6364 41.9735C40.6701 41.9201 40.6996 41.8655 40.7265 41.8083C40.7477 41.7424 40.765 41.6764 40.7779 41.6072C40.8371 41.0282 40.8324 40.4407 40.8324 39.8588C40.8324 39.2439 40.8402 38.6276 40.7801 38.0153C40.7493 37.8009 40.7101 37.5876 40.6402 37.3842L40.6194 37.3451L40.5837 37.3062C40.5147 37.2579 40.4424 37.2176 40.3664 37.1804C40.3143 37.1576 40.2613 37.1361 40.2074 37.1197C40.1234 37.0941 40.0393 37.0719 39.9546 37.0494C39.7945 37.0067 39.6342 36.9744 39.4715 36.9486C39.2573 36.9209 39.0431 36.8984 38.8276 36.8844C38.7021 36.876 38.5768 36.8689 38.4509 36.8645C38.352 36.861 38.2522 36.8699 38.1536 36.8799ZM38.9449 36C39.0759 36 39.2068 36.0023 39.3373 36.0082C39.6562 36.0232 39.9693 36.068 40.2815 36.1383C40.4145 36.1683 40.5402 36.2074 40.667 36.2596C40.832 36.3276 40.9965 36.3988 41.1391 36.5118C41.2597 36.6072 41.3737 36.718 41.4497 36.8584C41.4697 36.8952 41.4861 36.9324 41.5025 36.9711C41.5466 37.0723 41.5836 37.1757 41.6154 37.2814C41.6564 37.4191 41.6823 37.5619 41.7058 37.7036C41.8136 38.3581 41.7985 39.0265 41.7865 39.688C41.7808 40.0008 41.7728 40.3139 41.7599 40.6268C41.7457 40.9736 41.7307 41.3232 41.6794 41.667C41.661 41.7914 41.6448 41.9151 41.5992 42.0333C41.561 42.1319 41.5256 42.2329 41.4761 42.3259C41.4271 42.4178 41.3706 42.4991 41.3083 42.5816C41.2524 42.6559 41.1947 42.7241 41.124 42.7838C41.0555 42.8415 40.989 42.8935 40.9129 42.9376C40.8579 42.9692 40.795 42.9943 40.7384 43.0193C40.6726 43.0484 40.6065 43.0725 40.538 43.0943C40.4717 43.1152 40.401 43.129 40.332 43.1396C40.2296 43.1548 40.1269 43.1731 40.0236 43.1803C39.7263 43.2017 39.4283 43.2061 39.1305 43.1965C38.9755 43.1911 38.8212 43.1841 38.6662 43.1749C38.5937 43.171 38.5212 43.1618 38.4489 43.1543C38.3469 43.1447 38.2427 43.1302 38.142 43.1091C38.056 43.0908 37.9673 43.0714 37.8862 43.0355C37.7742 42.9863 37.6675 42.9413 37.5689 42.867C37.4551 42.7815 37.3808 42.7013 37.3006 42.5802C37.2292 42.4719 37.1859 42.3482 37.1394 42.2266C37.0726 42.0522 37.0573 41.854 37.0369 41.6698C37.0052 41.3818 36.9964 41.0872 37.0013 40.7976C37.0121 40.152 37.025 39.5066 37.0338 38.861C37.0381 38.5522 37.0409 38.2433 37.0409 37.9345C37.0409 37.8904 37.0407 37.8466 37.0403 37.8023C37.0303 37.6743 37.021 37.5462 37.025 37.4175C37.0259 37.3894 37.027 37.361 37.0283 37.3329C37.0236 37.2148 37.0177 37.0967 37.0112 36.9786C37.0032 36.8403 37.0642 36.7138 37.1585 36.625C37.1766 36.5856 37.1977 36.5479 37.2225 36.5132C37.3119 36.3874 37.4159 36.2768 37.5525 36.2079C37.6349 36.1666 37.719 36.1272 37.8068 36.1001C37.8704 36.0804 37.9352 36.0682 38.0006 36.0562C38.1686 36.0265 38.3425 36.0098 38.513 36.0059C38.6564 36.0028 38.8008 36 38.9449 36Z" fill="#FFA432"/>
<path fill-rule="evenodd" clip-rule="evenodd" d="M47.4568 41.3187C47.4053 41.3259 47.3543 41.3339 47.3038 41.3438C47.1858 41.3675 47.0727 41.4006 46.9604 41.4392C46.7872 41.5116 46.616 41.592 46.4588 41.6891L46.4068 41.7214C46.3701 41.7528 46.3355 41.7852 46.3024 41.8197C46.2546 41.8837 46.2118 41.9501 46.1738 42.0193C46.099 42.2202 46.0555 42.4315 46.0142 42.6396C45.935 43.2246 45.8856 43.8127 45.8074 44.3975C45.7638 44.7239 45.7334 45.0501 45.7139 45.3782C45.6988 45.6338 45.687 45.8885 45.7099 46.1435C45.7261 46.2147 45.7461 46.2838 45.771 46.3526C45.7971 46.3989 45.8251 46.4438 45.856 46.4875L45.8938 46.5223C45.9688 46.5665 46.0467 46.6054 46.1278 46.6413C46.3389 46.7155 46.5521 46.7773 46.774 46.8246C47.0096 46.8748 47.2518 46.9045 47.4909 46.9381C47.7822 46.9711 48.0739 46.9991 48.3647 47.0334C48.7253 47.0757 49.0853 47.1017 49.4482 47.1201C50.1652 47.1563 50.8847 47.1631 51.6024 47.173C52.2541 47.1819 52.9116 47.1582 53.5601 47.0882C53.6818 47.0701 53.8002 47.046 53.9172 47.0105C53.9547 46.9924 53.9909 46.9728 54.0263 46.9521L54.0786 46.9035C54.1526 46.8024 54.2117 46.6959 54.2667 46.586C54.3763 46.2908 54.4429 45.9822 54.4986 45.6746C54.524 45.4771 54.5425 45.2794 54.5588 45.0807C54.5771 44.8639 54.6064 44.6485 54.6251 44.4315C54.6442 44.2062 54.645 43.9827 54.6415 43.7569C54.6383 43.5372 54.6307 43.319 54.6035 43.1012C54.571 42.89 54.5353 42.677 54.4764 42.4708C54.4165 42.2613 54.3594 42.0466 54.2762 41.8431C54.2474 41.7864 54.2154 41.7316 54.1787 41.6789L54.1547 41.6574C54.081 41.6142 54.006 41.5751 53.9278 41.5394C53.7688 41.4865 53.6089 41.4459 53.4425 41.4189C53.1866 41.3972 52.9293 41.3933 52.673 41.3752C52.3772 41.354 52.0805 41.3436 51.7842 41.3233C51.4384 41.2999 51.0931 41.2736 50.7468 41.2603C50.4143 41.2477 50.0827 41.2313 49.7507 41.2122C49.6955 41.2139 49.6403 41.2154 49.5853 41.2171C48.8753 41.2371 48.1629 41.2492 47.4568 41.3187ZM48.4151 40C48.5005 40 48.586 40.0012 48.6708 40.0024C49.0243 40.0065 49.3769 40.0225 49.7296 40.0427C50.0883 40.0642 50.4468 40.0828 50.806 40.0983C51.1465 40.1127 51.4851 40.1487 51.8254 40.1676C52.1751 40.1874 52.5241 40.2185 52.8735 40.2417C53.2568 40.2675 53.6483 40.2929 54.0147 40.4051C54.2083 40.4643 54.3993 40.542 54.5784 40.6318C54.7789 40.732 54.9812 40.8552 55.1247 41.0201C55.2485 41.1625 55.3619 41.3086 55.4416 41.4764C55.5256 41.6533 55.5978 41.8303 55.6633 42.0133C55.7673 42.304 55.8434 42.6063 55.8928 42.9085C55.9522 43.2746 55.9766 43.6389 55.9861 44.0085C55.994 44.3113 55.9583 44.6128 55.9256 44.9136C55.8865 45.2748 55.8574 45.6382 55.7853 45.9957C55.7216 46.3094 55.6427 46.6252 55.5172 46.9236C55.444 47.0972 55.3531 47.2715 55.2443 47.4291C55.1957 47.4989 55.1379 47.5636 55.0824 47.6283C55.0459 47.6708 55.0103 47.7147 54.967 47.7519C54.856 47.8478 54.7324 47.932 54.6008 48.0023C54.2265 48.2012 53.7933 48.2517 53.3709 48.2935C53.0196 48.3285 52.6686 48.356 52.3156 48.3743C51.9633 48.3932 51.6106 48.3949 51.258 48.3968C50.9088 48.3987 50.5598 48.4028 50.2109 48.4011C49.8384 48.3985 49.4665 48.3934 49.0943 48.3828C48.7577 48.3736 48.4231 48.3381 48.0873 48.3162C47.7365 48.2937 47.3873 48.2645 47.0386 48.2256C46.798 48.1986 46.5563 48.1725 46.3186 48.129C46.1421 48.0969 45.9683 48.0549 45.7961 48.0076C45.3515 47.8852 44.9014 47.7169 44.5957 47.3837C44.5094 47.2905 44.4172 47.1829 44.348 47.0754C44.2753 46.9629 44.2167 46.8412 44.167 46.7196C44.0814 46.5131 44.0526 46.3082 44.0217 46.0887C43.9797 45.7893 44.0075 45.4786 44.031 45.1787C44.0574 44.839 44.1063 44.5027 44.1564 44.1657C44.1895 43.9322 44.2233 43.6988 44.2576 43.4655C44.3099 43.0763 44.3577 42.6869 44.4267 42.3001C44.4544 42.1451 44.5014 41.9935 44.5498 41.8429C44.596 41.6985 44.6552 41.5611 44.722 41.4228C44.7909 41.2806 44.8934 41.1608 44.9983 41.0389C45.1325 40.8832 45.2862 40.7538 45.4635 40.6388L45.5269 40.5997L45.5763 40.5715C45.7231 40.4906 45.8787 40.4283 46.0383 40.3677C46.4316 40.2178 46.8484 40.1147 47.2782 40.1246H47.2909C47.3683 40.0857 47.4518 40.0662 47.5405 40.0662C47.5662 40.0633 47.5918 40.0604 47.6174 40.0579C47.7957 40.0357 47.9737 40.0162 48.1536 40.006C48.2405 40.0014 48.3277 40 48.4151 40Z" fill="#0A1629"/>
<path fill-rule="evenodd" clip-rule="evenodd" d="M36.0527 48.4226C36.0477 48.3869 36.042 48.3509 36.035 48.3155C36.0181 48.2328 35.9947 48.1534 35.967 48.0749C35.9153 47.9533 35.858 47.8335 35.7886 47.7235L35.7654 47.6868C35.7433 47.6611 35.7199 47.6369 35.6958 47.6137C35.6499 47.5802 35.6025 47.5504 35.5532 47.5235C35.4099 47.4711 35.259 47.4406 35.1103 47.4117C34.6933 47.3565 34.2736 47.3215 33.8564 47.2667C33.6234 47.2362 33.391 47.2151 33.1569 47.2012C32.9742 47.1907 32.7925 47.1826 32.6112 47.1985C32.5602 47.2097 32.5108 47.2239 32.4615 47.2413C32.4285 47.2594 32.3966 47.2792 32.3655 47.3007L32.3407 47.3274C32.3091 47.3797 32.2813 47.4347 32.2558 47.4912C32.2028 47.6394 32.1587 47.7888 32.1248 47.9443C32.0891 48.1093 32.0679 48.2788 32.044 48.4465C32.0204 48.6507 32.0004 48.8551 31.976 49.0593C31.9458 49.3119 31.9271 49.5643 31.9141 49.8186C31.8884 50.3211 31.8832 50.8253 31.8762 51.3285C31.87 51.7853 31.8868 52.2462 31.9369 52.7003C31.9499 52.7859 31.9669 52.869 31.9922 52.9509C32.0054 52.9771 32.019 53.0023 32.0338 53.0272L32.0686 53.0639C32.1409 53.1155 32.2167 53.157 32.2952 53.1959C32.5058 53.2727 32.7258 53.3192 32.9453 53.3583C33.0861 53.3759 33.2274 53.3891 33.3691 53.4003C33.5238 53.4131 33.6774 53.4338 33.832 53.4468C33.9929 53.4605 34.1523 53.4607 34.3134 53.4588C34.4704 53.4563 34.6257 53.451 34.7816 53.4316C34.9321 53.4091 35.0841 53.384 35.2311 53.3426C35.3805 53.3006 35.5336 53.2607 35.6787 53.2025C35.719 53.182 35.7581 53.16 35.7959 53.1343L35.8109 53.1169C35.8421 53.0656 35.8698 53.0128 35.8953 52.9582C35.9331 52.8467 35.9622 52.7347 35.9815 52.6181C35.997 52.4386 35.9995 52.2584 36.0125 52.0789C36.0277 51.8713 36.035 51.6632 36.0495 51.4559C36.0664 51.2136 36.085 50.9715 36.0946 50.7289C36.1035 50.4956 36.1153 50.2631 36.1285 50.0303C36.1278 49.9919 36.1267 49.9533 36.1253 49.9147C36.111 49.4171 36.1025 48.9177 36.0527 48.4226ZM36.9936 49.0943C36.9936 49.1542 36.9927 49.2141 36.9918 49.2738C36.9888 49.5212 36.9779 49.7687 36.9629 50.0156C36.9479 50.2673 36.9347 50.5184 36.9238 50.7702C36.9131 51.0089 36.8874 51.2463 36.8739 51.4845C36.8601 51.73 36.8378 51.9743 36.8209 52.2193C36.8027 52.4878 36.785 52.7621 36.7047 53.0191C36.6624 53.1548 36.6071 53.2886 36.5429 53.414C36.4713 53.5549 36.3835 53.6965 36.2659 53.797C36.1644 53.8838 36.0602 53.9632 35.9403 54.0192C35.8141 54.0782 35.6878 54.1288 35.5573 54.1745C35.35 54.2474 35.1344 54.3007 34.9187 54.3354C34.6576 54.3772 34.3978 54.3943 34.1339 54.4007C33.918 54.4066 33.7028 54.3811 33.4883 54.3584C33.2306 54.331 32.9715 54.3107 32.7162 54.2601C32.4924 54.2153 32.2672 54.1603 32.0543 54.072C31.9305 54.0212 31.8061 53.9571 31.6937 53.8808C31.6439 53.8471 31.5977 53.8065 31.5515 53.7674C31.5213 53.7419 31.4897 53.7168 31.4633 53.6864C31.395 53.6087 31.3347 53.5219 31.2847 53.4299C31.1428 53.1676 31.107 52.8639 31.077 52.5677C31.0522 52.3215 31.0324 52.0755 31.0195 51.8285C31.006 51.5811 31.0047 51.3341 31.0033 51.0869C31.0019 50.8424 30.999 50.5976 31.0004 50.3531C31.0019 50.0919 31.0058 49.8315 31.0135 49.5704C31.0201 49.3347 31.0452 49.1002 31.0609 48.8647C31.0768 48.6189 31.0975 48.3742 31.1257 48.1296C31.1448 47.9609 31.1635 47.7917 31.1944 47.6249C31.2171 47.5012 31.2472 47.3794 31.2811 47.2589C31.3684 46.9474 31.4883 46.6317 31.726 46.4175C31.7927 46.3571 31.8693 46.2925 31.946 46.2436C32.0261 46.193 32.1132 46.1519 32.1999 46.1167C32.347 46.0571 32.4933 46.0368 32.6498 46.015C32.8632 45.9859 33.0852 46.0052 33.2991 46.0219C33.5413 46.0402 33.7815 46.0744 34.0218 46.1096C34.1885 46.1329 34.355 46.1563 34.5213 46.1805C34.7988 46.217 35.0768 46.2505 35.3528 46.2991C35.4633 46.3187 35.5714 46.3512 35.6787 46.3852C35.782 46.4177 35.8801 46.4591 35.9786 46.5058C36.08 46.5542 36.1656 46.6263 36.2525 46.6997C36.3635 46.7938 36.4556 46.9014 36.5379 47.0256L36.5659 47.0701L36.5859 47.1046C36.6437 47.2075 36.6881 47.3168 36.7313 47.4286C36.8382 47.7042 36.9117 47.9964 36.9049 48.2976L36.9046 48.3064C36.9324 48.3607 36.9465 48.4192 36.9465 48.4818L36.9524 48.5351C36.9679 48.6605 36.982 48.785 36.9893 48.9114C36.9925 48.972 36.9936 49.0334 36.9936 49.0943Z" fill="#0A1629"/>
</g>
</svg>
